<mxfile host="app.diagrams.net" modified="2023-09-18T20:52:43.292Z" agent="Mozilla/5.0 (Windows NT 10.0; Win64; x64) AppleWebKit/537.36 (KHTML, like Gecko) Chrome/116.0.0.0 Safari/537.36" etag="aciRVb6VvQqLtxXq6mAM" version="21.7.5" type="github">
  <diagram name="Page-1" id="yNwxu_8WLF5vYVY1ScJ6">
    <mxGraphModel dx="2404" dy="628" grid="1" gridSize="11" guides="1" tooltips="1" connect="1" arrows="1" fold="1" page="1" pageScale="1" pageWidth="1169" pageHeight="1654" math="0" shadow="0">
      <root>
        <mxCell id="0" />
        <mxCell id="1" parent="0" />
        <mxCell id="3iEQ4G3ZfY2thMUotp2w-1" value="idb : [system] Hydrolienne Sabella [diagramme de bloc interne]" style="swimlane;whiteSpace=wrap;html=1;align=left;" vertex="1" parent="1">
          <mxGeometry x="88" y="187" width="1012" height="250" as="geometry">
            <mxRectangle x="310" y="180" width="140" height="30" as="alternateBounds" />
          </mxGeometry>
        </mxCell>
        <mxCell id="3iEQ4G3ZfY2thMUotp2w-19" style="edgeStyle=orthogonalEdgeStyle;rounded=0;orthogonalLoop=1;jettySize=auto;html=1;exitX=1;exitY=0.5;exitDx=0;exitDy=0;entryX=0;entryY=0.5;entryDx=0;entryDy=0;" edge="1" parent="3iEQ4G3ZfY2thMUotp2w-1" source="3iEQ4G3ZfY2thMUotp2w-3" target="3iEQ4G3ZfY2thMUotp2w-6">
          <mxGeometry relative="1" as="geometry" />
        </mxCell>
        <mxCell id="3iEQ4G3ZfY2thMUotp2w-3" value="" style="swimlane;startSize=0;" vertex="1" parent="3iEQ4G3ZfY2thMUotp2w-1">
          <mxGeometry x="26" y="80" width="114" height="60" as="geometry" />
        </mxCell>
        <mxCell id="3iEQ4G3ZfY2thMUotp2w-4" value="turbine&lt;br&gt;hydrolienne" style="text;html=1;align=center;verticalAlign=middle;resizable=0;points=[];autosize=1;strokeColor=none;fillColor=none;" vertex="1" parent="3iEQ4G3ZfY2thMUotp2w-3">
          <mxGeometry x="12" y="10" width="90" height="40" as="geometry" />
        </mxCell>
        <mxCell id="3iEQ4G3ZfY2thMUotp2w-20" style="edgeStyle=orthogonalEdgeStyle;rounded=0;orthogonalLoop=1;jettySize=auto;html=1;exitX=1;exitY=0.5;exitDx=0;exitDy=0;entryX=0;entryY=0.5;entryDx=0;entryDy=0;" edge="1" parent="3iEQ4G3ZfY2thMUotp2w-1" source="3iEQ4G3ZfY2thMUotp2w-6" target="3iEQ4G3ZfY2thMUotp2w-8">
          <mxGeometry relative="1" as="geometry" />
        </mxCell>
        <mxCell id="3iEQ4G3ZfY2thMUotp2w-6" value="" style="swimlane;startSize=0;" vertex="1" parent="3iEQ4G3ZfY2thMUotp2w-1">
          <mxGeometry x="209" y="80" width="114" height="60" as="geometry" />
        </mxCell>
        <mxCell id="3iEQ4G3ZfY2thMUotp2w-7" value="génératrice&lt;br&gt;synchrone" style="text;html=1;align=center;verticalAlign=middle;resizable=0;points=[];autosize=1;strokeColor=none;fillColor=none;" vertex="1" parent="3iEQ4G3ZfY2thMUotp2w-6">
          <mxGeometry x="17" y="10" width="80" height="40" as="geometry" />
        </mxCell>
        <mxCell id="3iEQ4G3ZfY2thMUotp2w-24" style="edgeStyle=orthogonalEdgeStyle;rounded=0;orthogonalLoop=1;jettySize=auto;html=1;exitX=0.5;exitY=0;exitDx=0;exitDy=0;strokeColor=default;" edge="1" parent="3iEQ4G3ZfY2thMUotp2w-1" source="3iEQ4G3ZfY2thMUotp2w-15">
          <mxGeometry relative="1" as="geometry">
            <mxPoint x="572" y="110" as="targetPoint" />
          </mxGeometry>
        </mxCell>
        <mxCell id="3iEQ4G3ZfY2thMUotp2w-15" value="" style="swimlane;startSize=0;" vertex="1" parent="3iEQ4G3ZfY2thMUotp2w-1">
          <mxGeometry x="506" y="180" width="120" height="60" as="geometry" />
        </mxCell>
        <mxCell id="3iEQ4G3ZfY2thMUotp2w-16" value="batterie de&amp;nbsp;&lt;br&gt;supercondensateur" style="text;html=1;align=center;verticalAlign=middle;resizable=0;points=[];autosize=1;strokeColor=none;fillColor=none;" vertex="1" parent="3iEQ4G3ZfY2thMUotp2w-15">
          <mxGeometry x="-10" y="10" width="130" height="40" as="geometry" />
        </mxCell>
        <mxCell id="3iEQ4G3ZfY2thMUotp2w-23" style="edgeStyle=orthogonalEdgeStyle;rounded=0;orthogonalLoop=1;jettySize=auto;html=1;exitX=1;exitY=0.5;exitDx=0;exitDy=0;" edge="1" parent="3iEQ4G3ZfY2thMUotp2w-1" source="3iEQ4G3ZfY2thMUotp2w-10">
          <mxGeometry relative="1" as="geometry">
            <mxPoint x="1034" y="110" as="targetPoint" />
          </mxGeometry>
        </mxCell>
        <mxCell id="3iEQ4G3ZfY2thMUotp2w-10" value="" style="swimlane;startSize=0;" vertex="1" parent="3iEQ4G3ZfY2thMUotp2w-1">
          <mxGeometry x="845" y="80" width="114" height="60" as="geometry" />
        </mxCell>
        <mxCell id="3iEQ4G3ZfY2thMUotp2w-11" value="transformateur&lt;br&gt;de tension" style="text;html=1;align=center;verticalAlign=middle;resizable=0;points=[];autosize=1;strokeColor=none;fillColor=none;" vertex="1" parent="3iEQ4G3ZfY2thMUotp2w-10">
          <mxGeometry x="7" y="10" width="100" height="40" as="geometry" />
        </mxCell>
        <mxCell id="3iEQ4G3ZfY2thMUotp2w-22" style="edgeStyle=orthogonalEdgeStyle;rounded=0;orthogonalLoop=1;jettySize=auto;html=1;exitX=1;exitY=0.5;exitDx=0;exitDy=0;entryX=0;entryY=0.5;entryDx=0;entryDy=0;" edge="1" parent="3iEQ4G3ZfY2thMUotp2w-1" source="3iEQ4G3ZfY2thMUotp2w-12" target="3iEQ4G3ZfY2thMUotp2w-10">
          <mxGeometry relative="1" as="geometry">
            <mxPoint x="814" y="110.0322580645161" as="targetPoint" />
          </mxGeometry>
        </mxCell>
        <mxCell id="3iEQ4G3ZfY2thMUotp2w-12" value="" style="swimlane;startSize=0;" vertex="1" parent="3iEQ4G3ZfY2thMUotp2w-1">
          <mxGeometry x="614" y="80" width="114" height="60" as="geometry" />
        </mxCell>
        <mxCell id="3iEQ4G3ZfY2thMUotp2w-13" value="onduleur&lt;br&gt;courant/tension" style="text;html=1;align=center;verticalAlign=middle;resizable=0;points=[];autosize=1;strokeColor=none;fillColor=none;" vertex="1" parent="3iEQ4G3ZfY2thMUotp2w-12">
          <mxGeometry y="10" width="110" height="40" as="geometry" />
        </mxCell>
        <mxCell id="3iEQ4G3ZfY2thMUotp2w-21" style="edgeStyle=orthogonalEdgeStyle;rounded=0;orthogonalLoop=1;jettySize=auto;html=1;exitX=1;exitY=0.5;exitDx=0;exitDy=0;entryX=0.036;entryY=0.525;entryDx=0;entryDy=0;entryPerimeter=0;" edge="1" parent="3iEQ4G3ZfY2thMUotp2w-1" source="3iEQ4G3ZfY2thMUotp2w-8" target="3iEQ4G3ZfY2thMUotp2w-13">
          <mxGeometry relative="1" as="geometry" />
        </mxCell>
        <mxCell id="3iEQ4G3ZfY2thMUotp2w-8" value="" style="swimlane;startSize=0;" vertex="1" parent="3iEQ4G3ZfY2thMUotp2w-1">
          <mxGeometry x="407" y="80" width="114" height="60" as="geometry" />
        </mxCell>
        <mxCell id="3iEQ4G3ZfY2thMUotp2w-9" value="redresseur&lt;br&gt;courant/tension" style="text;html=1;align=center;verticalAlign=middle;resizable=0;points=[];autosize=1;strokeColor=none;fillColor=none;" vertex="1" parent="3iEQ4G3ZfY2thMUotp2w-8">
          <mxGeometry x="4" y="10" width="110" height="40" as="geometry" />
        </mxCell>
        <mxCell id="3iEQ4G3ZfY2thMUotp2w-30" value="" style="endArrow=classic;html=1;rounded=0;" edge="1" parent="3iEQ4G3ZfY2thMUotp2w-1">
          <mxGeometry width="50" height="50" relative="1" as="geometry">
            <mxPoint x="-66" y="110" as="sourcePoint" />
            <mxPoint x="26" y="110" as="targetPoint" />
          </mxGeometry>
        </mxCell>
        <mxCell id="3iEQ4G3ZfY2thMUotp2w-38" value="1" style="ellipse;shape=doubleEllipse;whiteSpace=wrap;html=1;aspect=fixed;" vertex="1" parent="3iEQ4G3ZfY2thMUotp2w-1">
          <mxGeometry x="-10" y="44" width="36" height="36" as="geometry" />
        </mxCell>
        <mxCell id="3iEQ4G3ZfY2thMUotp2w-40" value="2" style="ellipse;shape=doubleEllipse;whiteSpace=wrap;html=1;aspect=fixed;" vertex="1" parent="3iEQ4G3ZfY2thMUotp2w-1">
          <mxGeometry x="154" y="44" width="36" height="36" as="geometry" />
        </mxCell>
        <mxCell id="3iEQ4G3ZfY2thMUotp2w-42" value="3" style="ellipse;shape=doubleEllipse;whiteSpace=wrap;html=1;aspect=fixed;" vertex="1" parent="3iEQ4G3ZfY2thMUotp2w-1">
          <mxGeometry x="352" y="44" width="36" height="36" as="geometry" />
        </mxCell>
        <mxCell id="3iEQ4G3ZfY2thMUotp2w-43" value="4" style="ellipse;shape=doubleEllipse;whiteSpace=wrap;html=1;aspect=fixed;" vertex="1" parent="3iEQ4G3ZfY2thMUotp2w-1">
          <mxGeometry x="548" y="44" width="36" height="36" as="geometry" />
        </mxCell>
        <mxCell id="3iEQ4G3ZfY2thMUotp2w-44" value="5" style="ellipse;shape=doubleEllipse;whiteSpace=wrap;html=1;aspect=fixed;" vertex="1" parent="3iEQ4G3ZfY2thMUotp2w-1">
          <mxGeometry x="781" y="44" width="36" height="36" as="geometry" />
        </mxCell>
        <mxCell id="3iEQ4G3ZfY2thMUotp2w-26" value="" style="endArrow=none;dashed=1;html=1;dashPattern=1 3;strokeWidth=2;rounded=0;" edge="1" parent="1">
          <mxGeometry width="50" height="50" relative="1" as="geometry">
            <mxPoint x="440" y="484" as="sourcePoint" />
            <mxPoint x="1078" y="484.17" as="targetPoint" />
          </mxGeometry>
        </mxCell>
        <mxCell id="3iEQ4G3ZfY2thMUotp2w-27" value="" style="endArrow=none;dashed=1;html=1;dashPattern=1 3;strokeWidth=2;rounded=0;" edge="1" parent="1">
          <mxGeometry width="50" height="50" relative="1" as="geometry">
            <mxPoint x="1078" y="484" as="sourcePoint" />
            <mxPoint x="1078" y="407" as="targetPoint" />
          </mxGeometry>
        </mxCell>
        <mxCell id="3iEQ4G3ZfY2thMUotp2w-28" value="" style="endArrow=none;dashed=1;html=1;dashPattern=1 3;strokeWidth=2;rounded=0;" edge="1" parent="1">
          <mxGeometry width="50" height="50" relative="1" as="geometry">
            <mxPoint x="440" y="484" as="sourcePoint" />
            <mxPoint x="440" y="407" as="targetPoint" />
          </mxGeometry>
        </mxCell>
        <mxCell id="3iEQ4G3ZfY2thMUotp2w-29" value="rendement global&amp;nbsp; électrique" style="text;html=1;strokeColor=none;fillColor=none;align=center;verticalAlign=middle;whiteSpace=wrap;rounded=0;" vertex="1" parent="1">
          <mxGeometry x="726" y="495" width="220" height="30" as="geometry" />
        </mxCell>
        <mxCell id="3iEQ4G3ZfY2thMUotp2w-32" value="" style="shape=partialRectangle;whiteSpace=wrap;html=1;bottom=1;right=1;left=1;top=0;fillColor=none;routingCenterX=-0.5;dashed=1;" vertex="1" parent="1">
          <mxGeometry x="99" y="308" width="143" height="187" as="geometry" />
        </mxCell>
        <mxCell id="3iEQ4G3ZfY2thMUotp2w-33" value="courant marin" style="text;html=1;strokeColor=none;fillColor=none;align=center;verticalAlign=middle;whiteSpace=wrap;rounded=0;" vertex="1" parent="1">
          <mxGeometry x="-73" y="268" width="220" height="30" as="geometry" />
        </mxCell>
        <mxCell id="3iEQ4G3ZfY2thMUotp2w-34" value="" style="shape=partialRectangle;whiteSpace=wrap;html=1;bottom=1;right=1;left=1;top=0;fillColor=none;routingCenterX=-0.5;dashed=1;" vertex="1" parent="1">
          <mxGeometry x="282" y="310" width="143" height="187" as="geometry" />
        </mxCell>
        <mxCell id="3iEQ4G3ZfY2thMUotp2w-35" value="rendement génératrice" style="text;html=1;strokeColor=none;fillColor=none;align=center;verticalAlign=middle;whiteSpace=wrap;rounded=0;" vertex="1" parent="1">
          <mxGeometry x="243.5" y="497" width="220" height="30" as="geometry" />
        </mxCell>
        <mxCell id="3iEQ4G3ZfY2thMUotp2w-36" value="rendement turbine" style="text;html=1;strokeColor=none;fillColor=none;align=center;verticalAlign=middle;whiteSpace=wrap;rounded=0;" vertex="1" parent="1">
          <mxGeometry x="66" y="506" width="220" height="30" as="geometry" />
        </mxCell>
        <mxCell id="3iEQ4G3ZfY2thMUotp2w-37" value="câble sous marin" style="text;html=1;strokeColor=none;fillColor=none;align=center;verticalAlign=middle;whiteSpace=wrap;rounded=0;" vertex="1" parent="1">
          <mxGeometry x="1006" y="264" width="220" height="30" as="geometry" />
        </mxCell>
      </root>
    </mxGraphModel>
  </diagram>
</mxfile>
